<?xml version="1.0" standalone="no"?>
<!DOCTYPE svg PUBLIC "-//W3C//DTD SVG 20010904//EN"
 "http://www.w3.org/TR/2001/REC-SVG-20010904/DTD/svg10.dtd">
<svg version="1.0" xmlns="http://www.w3.org/2000/svg"
 width="287.000000pt" height="96.000000pt" viewBox="0 0 287.000000 96.000000"
 preserveAspectRatio="xMidYMid meet">

<g transform="translate(0.000000,96.000000) scale(0.100000,-0.100000)"
fill="#000000" stroke="none">
<path d="M0 480 l0 -480 1435 0 1435 0 0 480 0 480 -1435 0 -1435 0 0 -480z
m2850 0 l0 -450 -1410 0 -1410 0 0 450 0 450 1410 0 1410 0 0 -450z"/>
<path d="M110 480 l0 -390 820 0 820 0 0 390 0 390 -820 0 -820 0 0 -390z
m797 124 c77 -49 73 -188 -7 -229 -60 -31 -150 -13 -183 38 -30 46 -26 125 9
166 42 50 125 62 181 25z m-407 -82 l65 -94 3 96 c2 88 4 96 22 96 19 0 20 -7
20 -130 0 -166 -8 -168 -105 -31 l-70 100 -3 -100 c-2 -79 -6 -99 -17 -99 -12
0 -15 23 -15 131 0 162 6 164 100 31z m740 83 c0 -11 -12 -15 -45 -15 l-45 0
0 -115 c0 -96 -3 -115 -15 -115 -12 0 -15 19 -15 115 l0 115 -45 0 c-33 0 -45
4 -45 15 0 12 18 15 105 15 87 0 105 -3 105 -15z m240 0 c0 -12 -14 -15 -65
-15 l-65 0 0 -40 0 -40 60 0 c47 0 60 -3 60 -15 0 -12 -13 -15 -60 -15 l-60 0
0 -45 0 -45 65 0 c51 0 65 -3 65 -15 0 -12 -16 -15 -80 -15 l-80 0 0 130 0
130 80 0 c64 0 80 -3 80 -15z"/>
<path d="M759 561 c-64 -65 -20 -171 71 -171 33 0 48 6 71 29 64 65 20 171
-71 171 -33 0 -48 -6 -71 -29z"/>
<path d="M2050 490 l0 -130 40 0 40 0 0 130 0 130 -40 0 -40 0 0 -130z"/>
<path d="M2170 585 c0 -34 1 -35 40 -35 l40 0 0 -95 0 -95 35 0 35 0 0 95 0
95 40 0 c39 0 40 1 40 35 l0 35 -115 0 -115 0 0 -35z"/>
</g>
</svg>
